<?xml version="1.0" encoding="utf-8"?>
<svg width="16" height="20" viewBox="0 0 16 20" fill="none" xmlns="http://www.w3.org/2000/svg">
  <g>
    <path d="M0 5.64708C0 2.52832 2.68629 0 6.00009 0C9.31371 0 12 2.52832 12 5.64708C12 8.76583 8.77714 16 6.00009 16C3.22286 16 0 8.76583 0 5.64708L0 5.64708Z" fill="#3498DB" fill-rule="evenodd" transform="translate(2 2)" />
    <path d="M2.38664 2.1976C0.795547 3.6951 0 5.51159 0 7.64708C-2.38419e-07 9.71629 0.72912 12.1412 2.18736 14.9219C3.96271 18.3073 5.90028 20 8.00009 20C10.0998 20 12.0374 18.3073 13.8127 14.9219C15.2709 12.1412 16 9.71626 16 7.64708C16 5.51161 15.2045 3.69512 13.6134 2.19762C12.0568 0.732539 10.1857 2.38419e-07 8.00009 0C5.81443 2.38419e-07 3.94328 0.732534 2.38664 2.1976L2.38664 2.1976ZM8.00009 2C4.68629 2 2 4.52832 2 7.64708C2 10.7658 5.22286 18 8.00009 18C10.7771 18 14 10.7658 14 7.64708C14 4.52832 11.3137 2 8.00009 2L8.00009 2Z" fill="#000000" fill-rule="evenodd" />
    <path d="M0 5C0 2.23846 2.23846 0 5 0C7.76154 0 10 2.23846 10 5C10 7.76154 7.76154 10 5 10C2.23846 10 0 7.76154 0 5L0 5ZM5 1.53846C5.21242 1.53846 5.38462 1.71066 5.38462 1.92308L5.38462 4.61539L7.30769 4.61539C7.52011 4.61539 7.69231 4.78758 7.69231 5C7.69231 5.21242 7.52011 5.38462 7.30769 5.38462L5 5.38462C4.78769 5.38462 4.61539 5.21231 4.61539 5L4.61539 1.92308C4.61539 1.71066 4.78758 1.53846 5 1.53846L5 1.53846Z" fill="#05346E" fill-rule="evenodd" transform="translate(3 3)" />
  </g>
</svg>