<?xml version="1.0" encoding="utf-8"?>
<svg width="16" height="20" viewBox="0 0 16 20" fill="none" xmlns="http://www.w3.org/2000/svg">
  <g>
    <path d="M2.38664 2.1976C0.795547 3.6951 0 5.51159 0 7.64708C0 9.71629 0.729118 12.1412 2.18736 14.9219C3.96271 18.3073 5.90028 20 8.00009 20C10.0998 20 12.0373 18.3073 13.8127 14.9219C15.2709 12.1412 16 9.71626 16 7.64708C16 5.5116 15.2045 3.69512 13.6134 2.19762C12.0568 0.732536 10.1857 0 8.00009 0C5.81443 0 3.94328 0.732536 2.38664 2.1976L2.38664 2.1976Z" fill="#000000" fill-rule="evenodd" />
    <g transform="translate(8 2)">
      <path d="M0 0C3.31377 4.57764e-05 6 2.52834 6 5.64708C6 8.76579 2.77721 15.9998 0 16L0 0L0 0L0 0Z" fill="#6E2F05" fill-rule="evenodd" />
      <path d="M6 5.64708C6 2.52834 3.31376 4.55989e-05 0 0L0 16C2.77721 15.9998 6 8.7658 6 5.64708ZM3.82611 3.27053C3.85123 3.17546 3.81009 3.07502 3.72639 3.02711C3.64277 2.97918 3.53815 2.99603 3.47278 3.06796L0.556103 6.28213C0.499459 6.34449 0.484195 6.43548 0.517243 6.51376C0.550292 6.59204 0.625352 6.64269 0.708326 6.64269L2.72722 6.64269L2.17389 8.7289C2.14845 8.82403 2.18946 8.92473 2.27322 8.97282C2.35699 9.02091 2.46184 9.00395 2.52722 8.93175L5.4439 5.71758C5.50054 5.65522 5.5158 5.56423 5.48276 5.48595C5.44971 5.40768 5.37465 5.35703 5.29167 5.35702L3.27278 5.35702L3.82611 3.27053Z" fill="#FF8736" fill-rule="evenodd" />
    </g>
    <g transform="translate(2 2)">
      <path d="M6 0C2.68652 0 0 2.52832 0 5.64709C0 8.76575 3.22266 15.9999 6 16L6 0L6 0Z" fill="#00544B" fill-rule="evenodd" />
      <path d="M0 5.64708C0 2.52834 2.68624 4.55989e-05 6 0L6 16C3.22279 15.9998 0 8.7658 0 5.64708ZM4.46075 3.5001C3.73918 3.52027 3.22414 4.16203 3.22414 4.16203L3.02998 4.17051C2.59065 4.20801 2.35898 4.27588 2.35898 4.27588C2.35898 4.27588 2.11997 4.32231 1.74304 4.49373C1.36611 4.66516 1.45754 4.9465 1.45754 4.9465C1.45754 4.9465 1.5299 5.29907 1.78563 5.36325C2.42375 5.50422 3.1015 4.80087 3.1015 4.80087C3.1015 4.80087 3.21546 4.65266 3.31661 4.70265C3.41775 4.75266 3.37595 4.82972 3.37595 4.82972C3.25987 5.16744 2.9656 5.45104 2.9656 5.45104C2.9656 5.45104 2.76504 5.6481 2.49226 5.85359C2.21949 6.05906 2.0934 6.19979 2.0934 6.19979C1.70351 6.61357 1.59758 7.1149 1.59758 7.1149C2.3678 7.16725 2.30126 7.77174 2.30077 7.77391C2.27977 8.16595 1.95819 8.43069 1.95819 8.43069C2.31654 9.08311 3.6784 8.99161 3.6784 8.99161C3.6784 8.99161 4.65362 8.96488 4.89929 8.73281C4.70765 8.52531 4.28734 8.55513 4.16382 8.5639L4.16322 8.56394C4.14758 8.56505 4.13689 8.56581 4.13203 8.56568C4.08885 8.56461 4.05681 8.52038 4.05696 8.45226C4.0571 8.38413 4.13267 8.3542 4.13267 8.3542C4.13267 8.3542 4.47775 8.15439 4.46075 7.8639C4.44374 7.57337 4.47775 7.56014 4.5617 7.54515C4.64564 7.53017 4.67083 7.58726 4.68788 7.71681C4.7212 7.99319 4.94025 7.91294 4.94025 7.91294C4.94025 7.91294 5.28248 7.77256 5.24995 7.47655C5.21505 7.03598 5.0481 6.46693 5.0481 6.46693L4.76359 5.55938C4.76359 5.55938 5.09798 5.17346 5.29357 4.87295C5.48916 4.57246 5.63851 4.18404 5.29357 3.8188C5.16113 3.68423 4.80115 3.49511 4.46075 3.5001ZM1.62182 4.32552C1.62182 4.32552 2.17082 4.00373 3.12312 3.94829C3.12588 3.94495 3.3225 3.75352 3.42597 3.6786C3.41384 3.67864 3.39018 3.67749 3.35716 3.67588C3.01187 3.65902 1.63922 3.59203 1.62182 4.32552ZM4.28653 3.78446C4.19593 3.78446 4.12249 3.85581 4.12249 3.94381C4.12249 4.03182 4.19593 4.10317 4.28653 4.10317C4.37713 4.10317 4.45057 4.03182 4.45057 3.94381C4.45057 3.85581 4.37713 3.78446 4.28653 3.78446ZM1.53111 8.3778C2.13616 8.28799 2.07529 7.63285 2.07529 7.63285C2.07529 7.63285 2.06425 7.54778 1.96606 7.45734C1.76648 7.25734 1.39877 7.34305 1.39877 7.34305C1.39877 7.34305 1.28111 7.35529 1.12565 7.49407C0.88619 7.71041 1.0626 8.06758 1.0626 8.06758C1.0626 8.06758 1.24542 8.40842 1.53111 8.3778Z" fill="#12C9A2" fill-rule="evenodd" />
    </g>
  </g>
</svg>