<?xml version="1.0" encoding="utf-8"?>
<svg width="15.22" height="19.894" viewBox="0 0 15.22 19.894" fill="none" xmlns="http://www.w3.org/2000/svg">
  <g>
    <path d="M0 7.6097C0 5.50835 0.742945 3.71473 2.22884 2.22884C3.71473 0.74295 5.50838 0 7.60977 0C9.71109 0 11.5047 0.74295 12.9906 2.22886C14.4764 3.71475 15.2194 5.50837 15.2194 7.6097C15.2194 9.65009 14.5401 12.0465 13.1817 14.7989Q10.6669 19.8941 7.60977 19.8941C5.57164 19.8941 3.71429 18.1957 2.03773 14.7989Q0 10.6703 0 7.6097ZM2 7.6097C2 4.51158 4.51154 2 7.60977 2C10.7078 2 13.2194 4.51158 13.2194 7.6097C13.2194 10.7078 10.2062 17.8941 7.60977 17.8941C5.0132 17.8941 2 10.7078 2 7.6097ZM5.50977 6.67403C5.50977 5.51227 6.45152 4.57043 7.61358 4.57043C8.77531 4.57043 9.71707 5.51227 9.71707 6.67403C9.71707 7.83585 8.77531 8.77768 7.61358 8.77768C6.45152 8.77768 5.50977 7.83585 5.50977 6.67403Z" fill="#000000" fill-rule="evenodd" />
    <path d="M0 5.60826C0 2.51093 2.51089 0 5.60832 0C8.70558 0 11.2165 2.51093 11.2165 5.60826C11.2165 8.70557 8.20404 15.89 5.60832 15.89C3.01242 15.89 0 8.70557 0 5.60826L0 5.60826ZM3.50886 4.67282C3.50886 3.51136 4.45038 2.56977 5.61213 2.56977C6.77356 2.56977 7.71508 3.51136 7.71508 4.67282C7.71508 5.83434 6.77356 6.77593 5.61213 6.77593C4.45038 6.77593 3.50886 5.83434 3.50886 4.67282L3.50886 4.67282Z" fill="#3498DB" fill-rule="evenodd" transform="translate(2 2)" />
    <path d="M0 15.89C2.59534 15.8869 5.60646 8.7049 5.60646 5.60826C5.60646 2.51149 3.09649 0.000909328 0 2.38419e-07L0 2.56977L0.00212908 2.56977C1.16356 2.56977 2.10508 3.51136 2.10508 4.67282C2.10508 5.83434 1.16356 6.77593 0.00212908 6.77593L0 6.77593L0 15.89Z" fill="#12C9A2" fill-rule="evenodd" transform="translate(7.61 2)" />
  </g>
</svg>