<?xml version="1.0" encoding="utf-8"?>
<svg width="16" height="20" viewBox="0 0 16 20" fill="none" xmlns="http://www.w3.org/2000/svg">
  <g>
    <path d="M2.38664 2.1976C0.795547 3.6951 0 5.51159 0 7.64708C0 9.71629 0.729118 12.1412 2.18736 14.9219C3.96271 18.3073 5.90028 20 8.00009 20C10.0998 20 12.0373 18.3073 13.8127 14.9219C15.2709 12.1412 16 9.71626 16 7.64708C16 5.5116 15.2045 3.69512 13.6134 2.19762C12.0568 0.732536 10.1857 0 8.00009 0C5.81443 0 3.94328 0.732536 2.38664 2.1976L2.38664 2.1976Z" fill="#000000" fill-rule="evenodd" />
    <g transform="translate(2 2)">
      <path d="M6 0C2.68652 0 0 2.52832 0 5.64709C0 8.76575 3.22266 15.9999 6 16L6 0L6 0Z" fill="#05346E" fill-rule="evenodd" />
      <path d="M6 0C2.68624 4.57764e-05 0 2.52834 0 5.64708C0 8.76579 3.22279 15.9998 6 16L6 0L6 0ZM3 3.5C1.61923 3.5 0.5 4.61923 0.5 6C0.5 7.38077 1.61923 8.5 3 8.5C4.38077 8.5 5.5 7.38077 5.5 6C5.5 4.61923 4.38077 3.5 3 3.5L3 3.5ZM3.19223 4.46159C3.19223 4.35538 3.10613 4.26929 2.99992 4.26929C2.89371 4.26929 2.80762 4.35538 2.80762 4.46159L2.80762 6.00005C2.80762 6.10621 2.89377 6.19236 2.99992 6.19236L4.15377 6.19236C4.25998 6.19236 4.34608 6.10626 4.34608 6.00005C4.34608 5.89384 4.25998 5.80775 4.15377 5.80775L3.19223 5.80775L3.19223 4.46159L3.19223 4.46159Z" fill="#3498DB" fill-rule="evenodd" />
    </g>
    <g transform="translate(8 2)">
      <path d="M0 0C3.31377 4.57764e-05 6 2.52834 6 5.64708C6 8.76579 2.77721 15.9998 0 16L0 0L0 0L0 0Z" fill="#6E2F05" fill-rule="evenodd" />
      <path d="M6 5.64708C6 2.52834 3.31376 4.55989e-05 0 0L0 16C2.77721 15.9998 6 8.7658 6 5.64708ZM3.82611 3.27053C3.85123 3.17546 3.81009 3.07502 3.72639 3.02711C3.64277 2.97918 3.53815 2.99603 3.47278 3.06796L0.556103 6.28213C0.499459 6.34449 0.484195 6.43548 0.517243 6.51376C0.550292 6.59204 0.625352 6.64269 0.708326 6.64269L2.72722 6.64269L2.17389 8.7289C2.14845 8.82403 2.18946 8.92473 2.27322 8.97282C2.35699 9.02091 2.46184 9.00395 2.52722 8.93175L5.4439 5.71758C5.50054 5.65522 5.5158 5.56423 5.48276 5.48595C5.44971 5.40768 5.37465 5.35703 5.29167 5.35702L3.27278 5.35702L3.82611 3.27053Z" fill="#FF8736" fill-rule="evenodd" />
    </g>
  </g>
</svg>