<?xml version="1.0" encoding="utf-8"?>
<svg width="16" height="20" viewBox="0 0 16 20" fill="none" xmlns="http://www.w3.org/2000/svg">
  <g>
    <path d="M2.38664 2.1976C0.795547 3.6951 0 5.51159 0 7.64708C0 9.71629 0.729118 12.1412 2.18736 14.9219C3.96271 18.3073 5.90028 20 8.00009 20C10.0998 20 12.0373 18.3073 13.8127 14.9219C15.2709 12.1412 16 9.71626 16 7.64708C16 5.5116 15.2045 3.69512 13.6134 2.19762C12.0568 0.732536 10.1857 0 8.00009 0C5.81443 0 3.94328 0.732536 2.38664 2.1976L2.38664 2.1976Z" fill="#000000" fill-rule="evenodd" />
    <path d="M0 0C1.09409 3.26075 3.32104 6.99989 5.3177 7C7.31435 6.99989 9.54131 3.26075 10.6354 0L0 0L0 0Z" fill="#00544B" fill-rule="evenodd" transform="translate(2.683 11)" />
    <path d="M0 0C1.09411 3.2608 3.32111 7 5.31779 7C7.31433 7 9.54131 3.2608 10.6354 0L0 0ZM5.29478 1.35228C5.29478 1.35228 5.75262 0.768438 6.39404 0.750088C6.69663 0.745547 7.01662 0.917607 7.13435 1.04003C7.44097 1.3723 7.30821 1.72567 7.13435 1.99905C6.96049 2.27243 6.66324 2.62353 6.66324 2.62353L6.91615 3.44917C6.91615 3.44917 7.06455 3.96686 7.09557 4.36767C7.12449 4.63697 6.82028 4.76468 6.82028 4.76468C6.82028 4.76468 6.62556 4.83769 6.59594 4.58625C6.58078 4.46839 6.55839 4.41646 6.48377 4.43009C6.40915 4.44373 6.37892 4.45576 6.39404 4.72007C6.40915 4.98435 6.1024 5.16612 6.1024 5.16612C6.1024 5.16612 6.03523 5.19335 6.0351 5.25533C6.03497 5.31731 6.06345 5.35755 6.10183 5.35852C6.10615 5.35863 6.11564 5.35794 6.12954 5.35694L6.13009 5.3569C6.23989 5.34892 6.61351 5.32179 6.78387 5.51056C6.56549 5.72169 5.69859 5.74601 5.69859 5.74601C5.69859 5.74601 4.488 5.82925 4.16946 5.23571C4.16946 5.23571 4.45531 4.99486 4.47398 4.6382C4.47442 4.63622 4.53357 4.08629 3.8489 4.03866C3.8489 4.03866 3.94306 3.58257 4.28965 3.20614C4.28965 3.20614 4.40173 3.07812 4.6442 2.89118C4.88668 2.70424 5.06497 2.52497 5.06497 2.52497C5.06497 2.52497 5.32655 2.26696 5.42974 1.95971C5.42974 1.95971 5.46689 1.88961 5.37698 1.84412C5.28707 1.79864 5.18577 1.93347 5.18577 1.93347C5.18577 1.93347 4.5833 2.57334 4.01606 2.4451C3.78874 2.38671 3.72442 2.06595 3.72442 2.06595C3.72442 2.06595 3.64314 1.81001 3.9782 1.65405C4.31326 1.4981 4.52573 1.45586 4.52573 1.45586C4.52573 1.45586 4.73166 1.39412 5.12219 1.36L5.29478 1.35228ZM5.20499 1.15784C4.35847 1.20827 3.87045 1.50101 3.87045 1.50101C3.88591 0.833725 5.1061 0.894672 5.41303 0.910007C5.44238 0.911476 5.46342 0.912521 5.47419 0.912478C5.38223 0.98064 5.20744 1.1548 5.20499 1.15784ZM6.09335 1.15376C6.09335 1.0737 6.15864 1.00879 6.23917 1.00879C6.3197 1.00879 6.38499 1.0737 6.38499 1.15376C6.38499 1.23383 6.3197 1.29873 6.23917 1.29873C6.15864 1.29873 6.09335 1.23383 6.09335 1.15376ZM4.27355 4.50988C4.27355 4.50988 4.32766 5.10589 3.78982 5.18759C3.53586 5.21544 3.37335 4.90537 3.37335 4.90537C3.37335 4.90537 3.21653 4.58043 3.42939 4.38362C3.56758 4.25736 3.67217 4.24622 3.67217 4.24622C3.67217 4.24622 3.99904 4.16825 4.17645 4.3502C4.26373 4.43248 4.27355 4.50988 4.27355 4.50988Z" fill="#12C9A2" fill-rule="evenodd" transform="translate(2.683 11)" />
    <path d="M0 5.64708C0 2.52834 2.68623 4.57764e-05 6 0L6 9L0.682304 9C0.254585 7.72526 0 6.52362 0 5.64708L0 5.64708Z" fill="#05346E" fill-rule="evenodd" transform="translate(2 2)" />
    <path d="M0 5.64708C0 2.52834 2.68624 4.57764e-05 6 0L6 9L0.682297 9C0.254585 7.72526 0 6.52362 0 5.64708L0 5.64708ZM0.5 5C0.5 3.61923 1.61923 2.5 3 2.5C4.38077 2.5 5.5 3.61923 5.5 5C5.5 6.38077 4.38077 7.5 3 7.5C1.61923 7.5 0.5 6.38077 0.5 5L0.5 5ZM3 3.26923C3.10621 3.26923 3.19231 3.35533 3.19231 3.46154L3.19231 4.80769L4.15385 4.80769C4.26006 4.80769 4.34615 4.89379 4.34615 5C4.34615 5.10621 4.26006 5.19231 4.15385 5.19231L3 5.19231C2.89384 5.19231 2.80769 5.10616 2.80769 5L2.80769 3.46154C2.80769 3.35533 2.89379 3.26923 3 3.26923L3 3.26923Z" fill="#3498DB" fill-rule="evenodd" transform="translate(2 2)" />
    <path d="M6 5.64708C6 2.52834 3.31377 4.57764e-05 0 0L0 9L5.3177 9C5.74541 7.72526 6 6.52362 6 5.64708L6 5.64708Z" fill="#6E2F05" fill-rule="evenodd" transform="translate(8 2)" />
    <path d="M6 5.64708C6 2.52834 3.31376 4.57764e-05 0 0L0 9L5.3177 9C5.74542 7.72526 6 6.52362 6 5.64708L6 5.64708ZM3.72639 2.02711C3.81009 2.07502 3.85123 2.17546 3.82611 2.27053L3.27278 4.35703L5.29167 4.35703C5.37465 4.35703 5.44971 4.40768 5.48276 4.48595C5.51581 4.56423 5.50054 4.65522 5.44389 4.71758L2.52722 7.93176C2.46185 8.00395 2.35699 8.0209 2.27322 7.97282C2.18946 7.92473 2.14845 7.82404 2.17389 7.7289L2.72722 5.64269L0.708328 5.64269C0.625351 5.64268 0.550293 5.59204 0.517242 5.51376C0.484192 5.43549 0.499458 5.3445 0.556107 5.28214L3.47278 2.06796C3.53815 1.99603 3.64277 1.97918 3.72639 2.02711L3.72639 2.02711Z" fill="#FF8736" fill-rule="evenodd" transform="translate(8 2)" />
  </g>
</svg>