<?xml version="1.0" encoding="utf-8"?>
<svg width="16" height="20" viewBox="0 0 16 20" fill="none" xmlns="http://www.w3.org/2000/svg">
  <g>
    <path d="M0 5.64708C0 2.52831 2.68629 0 6.00009 0C9.31371 0 12 2.52831 12 5.64708C12 8.76583 8.77715 16 6.00009 16C3.22285 16 0 8.76583 0 5.64708L0 5.64708Z" fill="#00544B" fill-rule="evenodd" transform="translate(2 2)" />
    <path d="M6.00009 0C2.68629 0 0 2.52832 0 5.64708C0 8.76583 3.22286 16 6.00009 16C8.77714 16 12 8.76583 12 5.64708C12 2.52832 9.31371 0 6.00009 0ZM8.15268 2.00018C6.86983 2.03688 5.95417 3.20456 5.95417 3.20456L5.60899 3.22001C4.82792 3.28823 4.41605 3.41172 4.41605 3.41172C4.41605 3.41172 3.99113 3.49619 3.32101 3.80809C2.65089 4.12002 2.81344 4.63191 2.81344 4.63191C2.81344 4.63191 2.94209 5.27342 3.39672 5.39019C4.5312 5.64668 5.73614 4.36693 5.73614 4.36693C5.73614 4.36693 5.93874 4.09727 6.11856 4.18824C6.29839 4.27921 6.22407 4.41943 6.22407 4.41943C6.0177 5.03392 5.49454 5.54993 5.49454 5.54993C5.49454 5.54993 5.13796 5.90848 4.65301 6.28237C4.16806 6.65623 3.94389 6.91228 3.94389 6.91228C3.25073 7.66515 3.06241 8.57733 3.06241 8.57733C4.43174 8.67258 4.31344 9.77245 4.31256 9.7764C4.27523 10.4897 3.70352 10.9714 3.70352 10.9714C4.3406 12.1585 6.76178 11.992 6.76178 11.992C6.76178 11.992 8.49558 11.9434 8.93233 11.5211C8.59162 11.1436 7.84439 11.1978 7.62478 11.2138L7.62374 11.2139C7.59592 11.2159 7.57691 11.2173 7.56826 11.217C7.49149 11.2151 7.43453 11.1346 7.4348 11.0107C7.43506 10.8867 7.5694 10.8322 7.5694 10.8322C7.5694 10.8322 8.18291 10.4687 8.15268 9.94014C8.12244 9.41151 8.18291 9.38745 8.33215 9.36017C8.48138 9.33291 8.52616 9.43679 8.55648 9.67251C8.61572 10.1754 9.00516 10.0294 9.00516 10.0294C9.00516 10.0294 9.61358 9.77395 9.55575 9.23535C9.4937 8.43373 9.1969 7.39835 9.1969 7.39835L8.69108 5.74706C8.69108 5.74706 9.28558 5.04486 9.6333 4.4981C9.98103 3.95134 10.2465 3.24461 9.6333 2.58006C9.39784 2.33522 8.75786 1.99109 8.15268 2.00018ZM3.10549 3.50203C3.10549 3.50203 4.08153 2.91654 5.77458 2.81567C5.77949 2.80959 6.12905 2.46128 6.31299 2.32496C6.29143 2.32504 6.24937 2.32295 6.19066 2.32001C5.5768 2.28935 3.13643 2.16745 3.10549 3.50203ZM7.84294 2.51758C7.68187 2.51758 7.5513 2.64739 7.5513 2.80752C7.5513 2.96765 7.68187 3.09746 7.84294 3.09746C8.00401 3.09746 8.13458 2.96765 8.13458 2.80752C8.13458 2.64739 8.00401 2.51758 7.84294 2.51758ZM2.94424 10.8752C4.01992 10.7118 3.91169 9.51975 3.91169 9.51975C3.91169 9.51975 3.89206 9.36496 3.7175 9.20039C3.36268 8.8365 2.70895 8.99244 2.70895 8.99244C2.70895 8.99244 2.49977 9.01473 2.22338 9.26724C1.79766 9.66087 2.1113 10.3107 2.1113 10.3107C2.1113 10.3107 2.43632 10.9309 2.94424 10.8752Z" fill="#12C9A2" fill-rule="evenodd" transform="translate(2 2)" />
    <path d="M2.38664 2.1976C0.795547 3.6951 0 5.51159 0 7.64708C0 9.71629 0.729118 12.1412 2.18736 14.9219C3.96271 18.3073 5.90028 20 8.00009 20C10.0998 20 12.0374 18.3073 13.8127 14.9219C15.2709 12.1412 16 9.71626 16 7.64708C16 5.51161 15.2045 3.69512 13.6134 2.19762C12.0568 0.732539 10.1857 0 8.00009 0C5.81443 -9.53674e-07 3.94328 0.732533 2.38664 2.1976L2.38664 2.1976ZM8.00009 2C4.68629 2 2 4.52831 2 7.64708C2 10.7658 5.22285 18 8.00009 18C10.7771 18 14 10.7658 14 7.64708C14 4.52831 11.3137 2 8.00009 2L8.00009 2Z" fill="#000000" fill-rule="evenodd" />
  </g>
</svg>