<?xml version="1.0" encoding="utf-8"?>
<svg width="15.22" height="19.894" viewBox="0 0 15.22 19.894" fill="none" xmlns="http://www.w3.org/2000/svg">
  <g>
    <path d="M0 5.60971C0 2.51158 2.51154 0 5.60976 0C8.70782 0 11.2194 2.51158 11.2194 5.60971C11.2194 8.70781 8.20616 15.8941 5.60976 15.8941C3.0132 15.8941 0 8.70781 0 5.60971L0 5.60971ZM3.50977 4.67403C3.50977 3.51227 4.45152 2.57043 5.61358 2.57043C6.77531 2.57043 7.71707 3.51227 7.71707 4.67403C7.71707 5.83585 6.77531 6.77768 5.61358 6.77768C4.45152 6.77768 3.50977 5.83585 3.50977 4.67403L3.50977 4.67403Z" fill="#DB344D" fill-rule="evenodd" transform="translate(2 2)" />
    <path d="M2.22883 2.22884C0.742943 3.71473 0 5.50835 0 7.6097C0 9.65011 0.679245 12.0465 2.03773 14.7989C3.71429 18.1957 5.57163 19.8941 7.60976 19.8941C9.64784 19.8941 11.5051 18.1957 13.1817 14.7989C14.5401 12.0465 15.2194 9.65008 15.2194 7.6097C15.2194 5.50837 14.4764 3.71475 12.9906 2.22886C11.5047 0.742952 9.71108 0 7.60976 0C5.50837 0 3.71472 0.742947 2.22883 2.22884L2.22883 2.22884ZM7.60976 2C4.51154 2 2 4.51158 2 7.60971C2 10.7078 5.0132 17.8941 7.60976 17.8941C10.2062 17.8941 13.2194 10.7078 13.2194 7.60971C13.2194 4.51158 10.7078 2 7.60976 2L7.60976 2ZM7.61358 4.57043C6.45152 4.57043 5.50977 5.51227 5.50977 6.67403C5.50977 7.83585 6.45152 8.77768 7.61358 8.77768C8.77531 8.77768 9.71707 7.83585 9.71707 6.67403C9.71707 5.51227 8.77531 4.57043 7.61358 4.57043L7.61358 4.57043Z" fill="#000000" fill-rule="evenodd" />
  </g>
</svg>