<?xml version="1.0" encoding="utf-8"?>
<svg width="16" height="20" viewBox="0 0 16 20" fill="none" xmlns="http://www.w3.org/2000/svg">
  <g>
    <path d="M0 5.64708C0 2.52832 2.68629 0 6.00009 0C9.31371 0 12 2.52832 12 5.64708C12 8.76583 8.77714 16 6.00009 16C3.22286 16 0 8.76583 0 5.64708L0 5.64708Z" fill="#FF8736" fill-rule="evenodd" transform="translate(2 2)" />
    <path d="M2.38664 2.1976C0.795547 3.6951 0 5.51159 0 7.64708C-2.38419e-07 9.71629 0.72912 12.1412 2.18736 14.9219C3.96271 18.3073 5.90028 20 8.00009 20C10.0998 20 12.0374 18.3073 13.8127 14.9219C15.2709 12.1412 16 9.71626 16 7.64708C16 5.51161 15.2045 3.69512 13.6134 2.19762C12.0568 0.732539 10.1857 2.38419e-07 8.00009 0C5.81443 2.38419e-07 3.94328 0.732534 2.38664 2.1976L2.38664 2.1976ZM8.00009 2C4.68629 2 2 4.52832 2 7.64708C2 10.7658 5.22286 18 8.00009 18C10.7771 18 14 10.7658 14 7.64708C14 4.52832 11.3137 2 8.00009 2L8.00009 2Z" fill="#000000" fill-rule="evenodd" />
    <path d="M6.45278 0.0542157C6.62017 0.150042 6.70246 0.350914 6.65223 0.541055C6.65223 0.541055 5.54556 4.71405 5.54556 4.71405C5.54556 4.71405 9.58335 4.71405 9.58335 4.71405C9.7493 4.71406 9.89942 4.81535 9.96551 4.97191C10.0316 5.12847 10.0011 5.31044 9.88779 5.43516C9.88779 5.43516 4.05444 11.8635 4.05444 11.8635C3.92369 12.0079 3.71397 12.0418 3.54645 11.9456C3.37893 11.8495 3.29691 11.6481 3.34777 11.4578C3.34777 11.4578 4.45444 7.28538 4.45444 7.28538C4.45444 7.28538 0.416651 7.28538 0.416651 7.28538C0.250704 7.28537 0.100584 7.18408 0.0344865 7.02752C-0.0316105 6.87096 -0.00108099 6.68899 0.112206 6.56427C0.112206 6.56427 5.94556 0.135928 5.94556 0.135928C6.0763 -0.00793552 6.28554 -0.0416424 6.45278 0.0542166C6.45278 0.0542166 6.45278 0.0542157 6.45278 0.0542157Z" fill="#6E2F05" fill-rule="evenodd" transform="translate(3.3 3)" />
  </g>
</svg>