<?xml version="1.0" encoding="utf-8"?>
<svg width="16" height="20" viewBox="0 0 16 20" fill="none" xmlns="http://www.w3.org/2000/svg">
  <g>
    <path d="M2.38664 2.1976C0.795547 3.6951 0 5.51159 0 7.64708C0 9.71629 0.729118 12.1412 2.18736 14.9219C3.96271 18.3073 5.90028 20 8.00009 20C10.0998 20 12.0373 18.3073 13.8127 14.9219C15.2709 12.1412 16 9.71626 16 7.64708C16 5.5116 15.2045 3.69512 13.6134 2.19762C12.0568 0.732536 10.1857 0 8.00009 0C5.81443 0 3.94328 0.732536 2.38664 2.1976L2.38664 2.1976Z" fill="#000000" fill-rule="evenodd" />
    <path d="M0 5.64708C0 2.52831 2.68629 0 6.00009 0C9.31371 0 12 2.52831 12 5.64708C12 8.76583 8.77715 16 6.00009 16C3.22285 16 0 8.76583 0 5.64708L0 5.64708Z" fill="#540012" fill-rule="evenodd" transform="translate(2 2)" />
    <path d="M6.00009 0C2.68629 0 0 2.52832 0 5.64708C0 8.76583 3.22286 16 6.00009 16C8.77714 16 12 8.76583 12 5.64708C12 2.52832 9.31371 0 6.00009 0ZM6 3C4.89543 3 4 3.89543 4 5C4 6.10457 4.89543 7 6 7C7.10457 7 8 6.10457 8 5C8 3.89543 7.10457 3 6 3Z" fill="#DB344D" fill-rule="evenodd" transform="translate(2 2)" />
  </g>
</svg>