<?xml version="1.0" encoding="utf-8"?>
<svg width="16" height="20" viewBox="0 0 16 20" fill="none" xmlns="http://www.w3.org/2000/svg">
  <g>
    <path d="M2.38664 2.1976C0.795547 3.6951 0 5.51159 0 7.64708C0 9.71629 0.729118 12.1412 2.18736 14.9219C3.96271 18.3073 5.90028 20 8.00009 20C10.0998 20 12.0373 18.3073 13.8127 14.9219C15.2709 12.1412 16 9.71626 16 7.64708C16 5.5116 15.2045 3.69512 13.6134 2.19762C12.0568 0.732536 10.1857 0 8.00009 0C5.81443 0 3.94328 0.732536 2.38664 2.1976L2.38664 2.1976Z" fill="#000000" fill-rule="evenodd" />
    <g transform="translate(2 2)">
      <path d="M6 0C2.68652 0 0 2.52832 0 5.64709C0 8.76575 3.22266 15.9999 6 16L6 0L6 0Z" fill="#05346E" fill-rule="evenodd" />
      <path d="M6 0C2.68624 4.57764e-05 0 2.52834 0 5.64708C0 8.76579 3.22279 15.9998 6 16L6 0L6 0ZM3 3.5C1.61923 3.5 0.5 4.61923 0.5 6C0.5 7.38077 1.61923 8.5 3 8.5C4.38077 8.5 5.5 7.38077 5.5 6C5.5 4.61923 4.38077 3.5 3 3.5L3 3.5ZM3.19223 4.46159C3.19223 4.35538 3.10613 4.26929 2.99992 4.26929C2.89371 4.26929 2.80762 4.35538 2.80762 4.46159L2.80762 6.00005C2.80762 6.10621 2.89377 6.19236 2.99992 6.19236L4.15377 6.19236C4.25998 6.19236 4.34608 6.10626 4.34608 6.00005C4.34608 5.89384 4.25998 5.80775 4.15377 5.80775L3.19223 5.80775L3.19223 4.46159L3.19223 4.46159Z" fill="#3498DB" fill-rule="evenodd" />
    </g>
    <g transform="translate(8 2)">
      <path d="M0 0C3.31377 4.57764e-05 6 2.52834 6 5.64708C6 8.76579 2.77721 15.9998 0 16L0 0L0 0L0 0Z" fill="#00544B" fill-rule="evenodd" />
      <path d="M9.15527e-05 16L0 16L0 0L9.15527e-05 0C3.31371 0 6 2.52831 6 5.64708C6 8.76583 2.77715 16 9.15527e-05 16ZM3.88362 3.5001C3.17806 3.52028 2.67444 4.16251 2.67444 4.16251L2.48459 4.171C2.05501 4.20853 1.82848 4.27644 1.82848 4.27644C1.82848 4.27644 1.59477 4.32291 1.2262 4.49445C0.857637 4.66601 0.947043 4.94755 0.947043 4.94755C0.947043 4.94755 1.0178 5.30038 1.26785 5.36461C1.89181 5.50567 2.55453 4.80181 2.55453 4.80181C2.55453 4.80181 2.66596 4.6535 2.76486 4.70353C2.86376 4.75357 2.82289 4.83068 2.82289 4.83068C2.70938 5.16865 2.42165 5.45246 2.42165 5.45246C2.42165 5.45246 2.22553 5.64966 1.95881 5.8553C1.69208 6.06093 1.56879 6.20175 1.56879 6.20175C1.18755 6.61583 1.08397 7.11753 1.08397 7.11753C1.83711 7.16992 1.77204 7.77484 1.77156 7.77702C1.75103 8.16934 1.43659 8.43428 1.43659 8.43428C1.78698 9.08718 3.11863 8.99561 3.11863 8.99561C3.11863 8.99561 4.07222 8.96886 4.31243 8.73662C4.12504 8.52896 3.71406 8.55881 3.59328 8.56758L3.59276 8.56762C3.57743 8.56874 3.56696 8.5695 3.56219 8.56937C3.51997 8.5683 3.48864 8.52403 3.48879 8.45586C3.48893 8.38769 3.56282 8.35773 3.56282 8.35773C3.56282 8.35773 3.90025 8.15778 3.88362 7.86708C3.86699 7.57633 3.90025 7.5631 3.98233 7.54809C4.06441 7.5331 4.08904 7.59023 4.10571 7.71988C4.1383 7.99646 4.35249 7.91615 4.35249 7.91615C4.35249 7.91615 4.68712 7.77567 4.65531 7.47944C4.62119 7.03855 4.45794 6.46909 4.45794 6.46909L4.17975 5.56088C4.17975 5.56088 4.50672 5.17467 4.69797 4.87395C4.88921 4.57324 5.03525 4.18453 4.69797 3.81903C4.56846 3.68437 4.21647 3.4951 3.88362 3.5001ZM1.1084 4.32612C1.1084 4.32612 1.64522 4.00409 2.5764 3.94862C2.5791 3.94528 2.77136 3.7537 2.87252 3.67873C2.86067 3.67877 2.83753 3.67762 2.80524 3.67601C2.46762 3.65914 1.12541 3.5921 1.1084 4.32612ZM3.71314 3.78467C3.62455 3.78467 3.55273 3.85606 3.55273 3.94414C3.55273 4.03221 3.62455 4.1036 3.71314 4.1036C3.80172 4.1036 3.87354 4.03221 3.87354 3.94414C3.87354 3.85606 3.80172 3.78467 3.71314 3.78467ZM1.01933 8.38141C1.61095 8.29154 1.55143 7.63592 1.55143 7.63592C1.55143 7.63592 1.54063 7.55079 1.44462 7.46028C1.24947 7.26013 0.889918 7.34591 0.889918 7.34591C0.889918 7.34591 0.77487 7.35816 0.622855 7.49704C0.388712 7.71354 0.561211 8.07096 0.561211 8.07096C0.561211 8.07096 0.739975 8.41205 1.01933 8.38141Z" fill="#12C9A2" fill-rule="evenodd" />
    </g>
  </g>
</svg>